<mxfile host="app.diagrams.net" agent="Mozilla/5.0 (Windows NT 10.0; Win64; x64) AppleWebKit/537.36 (KHTML, like Gecko) Chrome/137.0.0.0 Safari/537.36" version="27.2.0">
  <diagram id="em6Z7vebmE1_05VexjcC" name="FHIRDataModelv3.3">
    <mxGraphModel dx="1901" dy="1036" grid="1" gridSize="10" guides="1" tooltips="1" connect="1" arrows="1" fold="1" page="1" pageScale="1" pageWidth="850" pageHeight="1100" math="0" shadow="0">
      <root>
        <mxCell id="0" />
        <mxCell id="1" parent="0" />
        <mxCell id="8VuM0Zkv0vW3da3uU9NV-1" value="" style="rounded=0;whiteSpace=wrap;html=1;" parent="1" vertex="1">
          <mxGeometry x="990" y="770" width="580" height="180" as="geometry" />
        </mxCell>
        <mxCell id="YoGBEqpOtSjLqOvvBxQy-56" value="" style="edgeStyle=orthogonalEdgeStyle;rounded=0;orthogonalLoop=1;jettySize=auto;html=1;entryX=0.541;entryY=0.988;entryDx=0;entryDy=0;entryPerimeter=0;jumpStyle=arc;" edge="1" parent="1" source="8VuM0Zkv0vW3da3uU9NV-12" target="8VuM0Zkv0vW3da3uU9NV-21">
          <mxGeometry relative="1" as="geometry">
            <Array as="points">
              <mxPoint x="306" y="440" />
              <mxPoint x="1149" y="440" />
            </Array>
          </mxGeometry>
        </mxCell>
        <mxCell id="8VuM0Zkv0vW3da3uU9NV-12" value="Consent" style="swimlane;fontStyle=0;childLayout=stackLayout;horizontal=1;startSize=30;horizontalStack=0;resizeParent=1;resizeParentMax=0;resizeLast=0;collapsible=1;marginBottom=0;whiteSpace=wrap;html=1;fontSize=13;rounded=1;swimlaneLine=1;glass=0;shadow=1;fillColor=#ffe6cc;strokeColor=#d79b00;" parent="1" vertex="1">
          <mxGeometry x="214.80999999999995" y="300" width="182.81" height="110" as="geometry" />
        </mxCell>
        <mxCell id="8VuM0Zkv0vW3da3uU9NV-13" value="ACP TreatmentDirective&amp;nbsp;" style="text;align=center;verticalAlign=middle;spacingLeft=4;spacingRight=4;overflow=hidden;points=[[0,0.5],[1,0.5]];portConstraint=eastwest;rotatable=0;whiteSpace=wrap;html=1;fontSize=13;" parent="8VuM0Zkv0vW3da3uU9NV-12" vertex="1">
          <mxGeometry y="30" width="182.81" height="80" as="geometry" />
        </mxCell>
        <mxCell id="8VuM0Zkv0vW3da3uU9NV-20" value="Practitioner" style="swimlane;fontStyle=0;childLayout=stackLayout;horizontal=1;startSize=30;horizontalStack=0;resizeParent=1;resizeParentMax=0;resizeLast=0;collapsible=1;marginBottom=0;whiteSpace=wrap;html=1;fontSize=13;rounded=1;swimlaneLine=1;glass=0;shadow=1;fillColor=#d5e8d4;strokeColor=#82b366;" parent="1" vertex="1">
          <mxGeometry x="1050" y="300" width="182.5" height="110" as="geometry" />
        </mxCell>
        <mxCell id="8VuM0Zkv0vW3da3uU9NV-21" value="ACP Practitioner" style="text;align=center;verticalAlign=middle;spacingLeft=4;spacingRight=4;overflow=hidden;points=[[0,0.5],[1,0.5]];portConstraint=eastwest;rotatable=0;whiteSpace=wrap;html=1;fontSize=13;" parent="8VuM0Zkv0vW3da3uU9NV-20" vertex="1">
          <mxGeometry y="30" width="182.5" height="80" as="geometry" />
        </mxCell>
        <mxCell id="8VuM0Zkv0vW3da3uU9NV-42" value="Questionnaire" style="swimlane;fontStyle=0;childLayout=stackLayout;horizontal=1;startSize=30;horizontalStack=0;resizeParent=1;resizeParentMax=0;resizeLast=0;collapsible=1;marginBottom=0;whiteSpace=wrap;html=1;fontSize=13;rounded=1;swimlaneLine=1;glass=0;shadow=1;fillColor=#f5f5f5;strokeColor=#666666;fontColor=#333333;" parent="1" vertex="1">
          <mxGeometry x="1309.25" y="530" width="180" height="110" as="geometry" />
        </mxCell>
        <mxCell id="8VuM0Zkv0vW3da3uU9NV-43" value="ACP Form" style="text;align=center;verticalAlign=middle;spacingLeft=4;spacingRight=4;overflow=hidden;points=[[0,0.5],[1,0.5]];portConstraint=eastwest;rotatable=0;whiteSpace=wrap;html=1;fontSize=13;" parent="8VuM0Zkv0vW3da3uU9NV-42" vertex="1">
          <mxGeometry y="30" width="180" height="80" as="geometry" />
        </mxCell>
        <mxCell id="YoGBEqpOtSjLqOvvBxQy-51" style="edgeStyle=orthogonalEdgeStyle;rounded=0;orthogonalLoop=1;jettySize=auto;html=1;entryX=0.5;entryY=0;entryDx=0;entryDy=0;" edge="1" parent="1" source="8VuM0Zkv0vW3da3uU9NV-66" target="8VuM0Zkv0vW3da3uU9NV-38">
          <mxGeometry relative="1" as="geometry">
            <Array as="points">
              <mxPoint x="576" y="230" />
              <mxPoint x="578" y="230" />
            </Array>
          </mxGeometry>
        </mxCell>
        <mxCell id="YoGBEqpOtSjLqOvvBxQy-52" style="edgeStyle=orthogonalEdgeStyle;rounded=0;orthogonalLoop=1;jettySize=auto;html=1;entryX=0.5;entryY=0;entryDx=0;entryDy=0;" edge="1" parent="1" source="8VuM0Zkv0vW3da3uU9NV-66" target="8VuM0Zkv0vW3da3uU9NV-80">
          <mxGeometry relative="1" as="geometry">
            <Array as="points">
              <mxPoint x="576" y="260" />
              <mxPoint x="864" y="260" />
            </Array>
          </mxGeometry>
        </mxCell>
        <mxCell id="YoGBEqpOtSjLqOvvBxQy-53" value=".participant.individual" style="edgeStyle=orthogonalEdgeStyle;rounded=0;orthogonalLoop=1;jettySize=auto;html=1;entryX=0.166;entryY=0.005;entryDx=0;entryDy=0;entryPerimeter=0;" edge="1" parent="1" source="8VuM0Zkv0vW3da3uU9NV-66" target="8VuM0Zkv0vW3da3uU9NV-20">
          <mxGeometry x="-0.7828" relative="1" as="geometry">
            <Array as="points">
              <mxPoint x="576" y="260" />
              <mxPoint x="1080" y="260" />
            </Array>
            <mxPoint as="offset" />
          </mxGeometry>
        </mxCell>
        <mxCell id="8VuM0Zkv0vW3da3uU9NV-66" value="Encounter" style="swimlane;fontStyle=0;childLayout=stackLayout;horizontal=1;startSize=30;horizontalStack=0;resizeParent=1;resizeParentMax=0;resizeLast=0;collapsible=1;marginBottom=0;whiteSpace=wrap;html=1;fontSize=13;rounded=1;swimlaneLine=1;glass=0;shadow=1;fillColor=#e1d5e7;strokeColor=#9673a6;" parent="1" vertex="1">
          <mxGeometry x="483.99000000000007" y="50" width="184.37" height="110" as="geometry" />
        </mxCell>
        <mxCell id="8VuM0Zkv0vW3da3uU9NV-67" value="&lt;div&gt;&lt;span style=&quot;&quot;&gt;ACP Encounter&lt;/span&gt;&lt;/div&gt;" style="text;align=center;verticalAlign=middle;spacingLeft=4;spacingRight=4;overflow=hidden;points=[[0,0.5],[1,0.5]];portConstraint=eastwest;rotatable=0;whiteSpace=wrap;html=1;fontSize=13;fontColor=#330000;" parent="8VuM0Zkv0vW3da3uU9NV-66" vertex="1">
          <mxGeometry y="30" width="184.37" height="80" as="geometry" />
        </mxCell>
        <mxCell id="8VuM0Zkv0vW3da3uU9NV-82" value="" style="whiteSpace=wrap;html=1;aspect=fixed;fillColor=#ffe6cc;strokeColor=#d79b00;" parent="1" vertex="1">
          <mxGeometry x="1018.5999999999999" y="860" width="30" height="30" as="geometry" />
        </mxCell>
        <mxCell id="8VuM0Zkv0vW3da3uU9NV-83" value="" style="whiteSpace=wrap;html=1;aspect=fixed;fillColor=#d5e8d4;strokeColor=#82b366;" parent="1" vertex="1">
          <mxGeometry x="1018.5999999999999" y="900" width="30" height="30" as="geometry" />
        </mxCell>
        <mxCell id="8VuM0Zkv0vW3da3uU9NV-84" value="" style="whiteSpace=wrap;html=1;aspect=fixed;fillColor=#e1d5e7;strokeColor=#9673a6;" parent="1" vertex="1">
          <mxGeometry x="1018.5999999999999" y="820" width="30" height="30" as="geometry" />
        </mxCell>
        <mxCell id="8VuM0Zkv0vW3da3uU9NV-85" value="&lt;div align=&quot;left&quot;&gt;&lt;font style=&quot;font-size: 15px;&quot;&gt;Individuals&lt;/font&gt;&lt;/div&gt;" style="text;html=1;align=left;verticalAlign=middle;resizable=0;points=[];autosize=1;strokeColor=none;fillColor=none;" parent="1" vertex="1">
          <mxGeometry x="1078.5999999999995" y="900" width="90" height="30" as="geometry" />
        </mxCell>
        <mxCell id="8VuM0Zkv0vW3da3uU9NV-86" value="&lt;div align=&quot;left&quot;&gt;&lt;font style=&quot;font-size: 15px;&quot;&gt;ACP Agreements&lt;/font&gt;&lt;/div&gt;" style="text;html=1;align=left;verticalAlign=middle;resizable=0;points=[];autosize=1;strokeColor=none;fillColor=none;" parent="1" vertex="1">
          <mxGeometry x="1078.5999999999995" y="860" width="140" height="30" as="geometry" />
        </mxCell>
        <mxCell id="8VuM0Zkv0vW3da3uU9NV-87" value="&lt;font style=&quot;font-size: 15px;&quot;&gt;ACP Consultation&lt;/font&gt;" style="text;html=1;align=center;verticalAlign=middle;resizable=0;points=[];autosize=1;strokeColor=none;fillColor=none;" parent="1" vertex="1">
          <mxGeometry x="1068.2899999999995" y="820" width="140" height="30" as="geometry" />
        </mxCell>
        <mxCell id="8VuM0Zkv0vW3da3uU9NV-88" value="&lt;font style=&quot;font-size: 17px;&quot;&gt;&lt;b&gt;Legend&lt;/b&gt;&lt;/font&gt;" style="text;html=1;align=center;verticalAlign=middle;whiteSpace=wrap;rounded=0;" parent="1" vertex="1">
          <mxGeometry x="1018.5999999999995" y="780" width="60" height="30" as="geometry" />
        </mxCell>
        <mxCell id="8VuM0Zkv0vW3da3uU9NV-89" value="FHIR Resource" style="swimlane;fontStyle=0;childLayout=stackLayout;horizontal=1;startSize=30;horizontalStack=0;resizeParent=1;resizeParentMax=0;resizeLast=0;collapsible=1;marginBottom=0;whiteSpace=wrap;html=1;fontSize=13;rounded=1;swimlaneLine=1;glass=0;shadow=1;" parent="1" vertex="1">
          <mxGeometry x="1269.9999999999995" y="805" width="120" height="110" as="geometry" />
        </mxCell>
        <mxCell id="8VuM0Zkv0vW3da3uU9NV-90" value="ACP profile name" style="text;align=center;verticalAlign=middle;spacingLeft=4;spacingRight=4;overflow=hidden;points=[[0,0.5],[1,0.5]];portConstraint=eastwest;rotatable=0;whiteSpace=wrap;html=1;fontSize=13;" parent="8VuM0Zkv0vW3da3uU9NV-89" vertex="1">
          <mxGeometry y="30" width="120" height="80" as="geometry" />
        </mxCell>
        <mxCell id="8VuM0Zkv0vW3da3uU9NV-91" value="" style="endArrow=classic;html=1;rounded=0;" parent="1" edge="1">
          <mxGeometry width="50" height="50" relative="1" as="geometry">
            <mxPoint x="1429.9999999999995" y="850" as="sourcePoint" />
            <mxPoint x="1529.9999999999995" y="850.5699999999999" as="targetPoint" />
          </mxGeometry>
        </mxCell>
        <mxCell id="8VuM0Zkv0vW3da3uU9NV-92" value="[text]" style="edgeLabel;html=1;align=center;verticalAlign=middle;resizable=0;points=[];" parent="8VuM0Zkv0vW3da3uU9NV-91" vertex="1" connectable="0">
          <mxGeometry x="-0.2145" y="2" relative="1" as="geometry">
            <mxPoint x="8" y="2" as="offset" />
          </mxGeometry>
        </mxCell>
        <mxCell id="8VuM0Zkv0vW3da3uU9NV-93" value="&lt;font style=&quot;font-size: 11px;&quot;&gt;reference element name&lt;/font&gt;" style="text;html=1;align=center;verticalAlign=middle;whiteSpace=wrap;rounded=0;" parent="1" vertex="1">
          <mxGeometry x="1419.9999999999995" y="870" width="130" height="30" as="geometry" />
        </mxCell>
        <mxCell id="Ys8HYr0ielTZR72OGGFr-14" style="edgeStyle=orthogonalEdgeStyle;rounded=0;orthogonalLoop=1;jettySize=auto;html=1;jumpStyle=arc;" parent="1" source="eSKdFPgsKXlqKzemyrp5-1" target="8VuM0Zkv0vW3da3uU9NV-42" edge="1">
          <mxGeometry relative="1" as="geometry">
            <Array as="points">
              <mxPoint x="1375.6" y="640" />
            </Array>
          </mxGeometry>
        </mxCell>
        <mxCell id="Ys8HYr0ielTZR72OGGFr-23" value=".questionnaire" style="edgeLabel;html=1;align=center;verticalAlign=middle;resizable=0;points=[];" parent="Ys8HYr0ielTZR72OGGFr-14" vertex="1" connectable="0">
          <mxGeometry x="0.5167" y="-2" relative="1" as="geometry">
            <mxPoint x="2" y="-24" as="offset" />
          </mxGeometry>
        </mxCell>
        <mxCell id="eSKdFPgsKXlqKzemyrp5-1" value="QuestionnaireResponse" style="swimlane;fontStyle=0;childLayout=stackLayout;horizontal=1;startSize=30;horizontalStack=0;resizeParent=1;resizeParentMax=0;resizeLast=0;collapsible=1;marginBottom=0;whiteSpace=wrap;html=1;fontSize=13;rounded=1;swimlaneLine=1;glass=0;shadow=1;fillColor=#ffe6cc;strokeColor=#d79b00;" parent="1" vertex="1">
          <mxGeometry x="1309.25" y="300" width="180" height="110" as="geometry" />
        </mxCell>
        <mxCell id="eSKdFPgsKXlqKzemyrp5-2" value="ACP QuestionnaireResponse" style="text;align=center;verticalAlign=middle;spacingLeft=4;spacingRight=4;overflow=hidden;points=[[0,0.5],[1,0.5]];portConstraint=eastwest;rotatable=0;whiteSpace=wrap;html=1;fontSize=13;" parent="eSKdFPgsKXlqKzemyrp5-1" vertex="1">
          <mxGeometry y="30" width="180" height="80" as="geometry" />
        </mxCell>
        <mxCell id="8VuM0Zkv0vW3da3uU9NV-46" value="Consent" style="swimlane;fontStyle=0;childLayout=stackLayout;horizontal=1;startSize=30;horizontalStack=0;resizeParent=1;resizeParentMax=0;resizeLast=0;collapsible=1;marginBottom=0;whiteSpace=wrap;html=1;fontSize=13;rounded=1;swimlaneLine=1;glass=0;shadow=1;fillColor=#ffe6cc;strokeColor=#d79b00;" parent="1" vertex="1">
          <mxGeometry x="211.17999999999998" y="50" width="184.69" height="110" as="geometry" />
        </mxCell>
        <mxCell id="8VuM0Zkv0vW3da3uU9NV-47" value="ACP AdvanceDirective" style="text;align=center;verticalAlign=middle;spacingLeft=4;spacingRight=4;overflow=hidden;points=[[0,0.5],[1,0.5]];portConstraint=eastwest;rotatable=0;whiteSpace=wrap;html=1;fontSize=13;" parent="8VuM0Zkv0vW3da3uU9NV-46" vertex="1">
          <mxGeometry y="30" width="184.69" height="80" as="geometry" />
        </mxCell>
        <mxCell id="FuLyr285XApAAdLGLGYC-1" value="Device" style="swimlane;fontStyle=0;childLayout=stackLayout;horizontal=1;startSize=30;horizontalStack=0;resizeParent=1;resizeParentMax=0;resizeLast=0;collapsible=1;marginBottom=0;whiteSpace=wrap;html=1;fontSize=13;rounded=1;swimlaneLine=1;glass=0;shadow=1;fillColor=#ffe6cc;strokeColor=#d79b00;" parent="1" vertex="1">
          <mxGeometry x="760" y="690" width="182.81" height="110" as="geometry" />
        </mxCell>
        <mxCell id="FuLyr285XApAAdLGLGYC-2" value="ACP ICD" style="text;align=center;verticalAlign=middle;spacingLeft=4;spacingRight=4;overflow=hidden;points=[[0,0.5],[1,0.5]];portConstraint=eastwest;rotatable=0;whiteSpace=wrap;html=1;fontSize=13;" parent="FuLyr285XApAAdLGLGYC-1" vertex="1">
          <mxGeometry y="30" width="182.81" height="80" as="geometry" />
        </mxCell>
        <mxCell id="YoGBEqpOtSjLqOvvBxQy-29" value=".device" style="edgeStyle=orthogonalEdgeStyle;rounded=0;orthogonalLoop=1;jettySize=auto;html=1;entryX=0.5;entryY=0;entryDx=0;entryDy=0;" edge="1" parent="1" source="FuLyr285XApAAdLGLGYC-3" target="FuLyr285XApAAdLGLGYC-1">
          <mxGeometry relative="1" as="geometry" />
        </mxCell>
        <mxCell id="FuLyr285XApAAdLGLGYC-3" value="DeviceUseStatement" style="swimlane;fontStyle=0;childLayout=stackLayout;horizontal=1;startSize=30;horizontalStack=0;resizeParent=1;resizeParentMax=0;resizeLast=0;collapsible=1;marginBottom=0;whiteSpace=wrap;html=1;fontSize=13;rounded=1;swimlaneLine=1;glass=0;shadow=1;fillColor=#ffe6cc;strokeColor=#d79b00;" parent="1" vertex="1">
          <mxGeometry x="759.9999999999998" y="530" width="182.81" height="110" as="geometry" />
        </mxCell>
        <mxCell id="FuLyr285XApAAdLGLGYC-4" value="ACP ICDPresent" style="text;align=center;verticalAlign=middle;spacingLeft=4;spacingRight=4;overflow=hidden;points=[[0,0.5],[1,0.5]];portConstraint=eastwest;rotatable=0;whiteSpace=wrap;html=1;fontSize=13;" parent="FuLyr285XApAAdLGLGYC-3" vertex="1">
          <mxGeometry y="30" width="182.81" height="80" as="geometry" />
        </mxCell>
        <mxCell id="YoGBEqpOtSjLqOvvBxQy-64" style="edgeStyle=orthogonalEdgeStyle;rounded=0;orthogonalLoop=1;jettySize=auto;html=1;entryX=1;entryY=0.5;entryDx=0;entryDy=0;jumpStyle=arc;exitX=0.997;exitY=0.423;exitDx=0;exitDy=0;exitPerimeter=0;" edge="1" parent="1" source="Ys8HYr0ielTZR72OGGFr-28" target="8VuM0Zkv0vW3da3uU9NV-67">
          <mxGeometry relative="1" as="geometry">
            <mxPoint x="1247.8405800000005" y="597.8799999999999" as="sourcePoint" />
            <mxPoint x="673.6699999999998" y="130" as="targetPoint" />
            <Array as="points">
              <mxPoint x="1248" y="594" />
              <mxPoint x="1284" y="593" />
              <mxPoint x="1284" y="120" />
            </Array>
          </mxGeometry>
        </mxCell>
        <mxCell id="YoGBEqpOtSjLqOvvBxQy-65" value=".context" style="edgeLabel;html=1;align=center;verticalAlign=middle;resizable=0;points=[];" vertex="1" connectable="0" parent="YoGBEqpOtSjLqOvvBxQy-64">
          <mxGeometry x="-0.3192" y="1" relative="1" as="geometry">
            <mxPoint x="1" y="234" as="offset" />
          </mxGeometry>
        </mxCell>
        <mxCell id="Ys8HYr0ielTZR72OGGFr-27" value="Communication" style="swimlane;fontStyle=0;childLayout=stackLayout;horizontal=1;startSize=30;horizontalStack=0;resizeParent=1;resizeParentMax=0;resizeLast=0;collapsible=1;marginBottom=0;whiteSpace=wrap;html=1;fontSize=13;rounded=1;swimlaneLine=1;glass=0;shadow=1;fillColor=#ffe6cc;strokeColor=#d79b00;" parent="1" vertex="1">
          <mxGeometry x="1046.88" y="530" width="185.62" height="110" as="geometry" />
        </mxCell>
        <mxCell id="Ys8HYr0ielTZR72OGGFr-28" value="ACP CommunicationResponsibility" style="text;align=center;verticalAlign=middle;spacingLeft=4;spacingRight=4;overflow=hidden;points=[[0,0.5],[1,0.5]];portConstraint=eastwest;rotatable=0;whiteSpace=wrap;html=1;fontSize=13;" parent="Ys8HYr0ielTZR72OGGFr-27" vertex="1">
          <mxGeometry y="30" width="185.62" height="80" as="geometry" />
        </mxCell>
        <mxCell id="8VuM0Zkv0vW3da3uU9NV-38" value="Patient" style="swimlane;fontStyle=0;childLayout=stackLayout;horizontal=1;startSize=30;horizontalStack=0;resizeParent=1;resizeParentMax=0;resizeLast=0;collapsible=1;marginBottom=0;whiteSpace=wrap;html=1;fontSize=13;rounded=1;swimlaneLine=1;glass=0;shadow=1;fillColor=#d5e8d4;strokeColor=#82b366;" parent="1" vertex="1">
          <mxGeometry x="483.99" y="300" width="187.81" height="110" as="geometry" />
        </mxCell>
        <mxCell id="8VuM0Zkv0vW3da3uU9NV-39" value="ACP Patient" style="text;align=center;verticalAlign=middle;spacingLeft=4;spacingRight=4;overflow=hidden;points=[[0,0.5],[1,0.5]];portConstraint=eastwest;rotatable=0;whiteSpace=wrap;html=1;fontSize=13;" parent="8VuM0Zkv0vW3da3uU9NV-38" vertex="1">
          <mxGeometry y="30" width="187.81" height="80" as="geometry" />
        </mxCell>
        <mxCell id="8VuM0Zkv0vW3da3uU9NV-80" value="RelatedPerson" style="swimlane;fontStyle=0;childLayout=stackLayout;horizontal=1;startSize=30;horizontalStack=0;resizeParent=1;resizeParentMax=0;resizeLast=0;collapsible=1;marginBottom=0;whiteSpace=wrap;html=1;fontSize=13;rounded=1;swimlaneLine=1;glass=0;shadow=1;fillColor=#d5e8d4;strokeColor=#82b366;" parent="1" vertex="1">
          <mxGeometry x="770" y="300" width="187.5" height="110" as="geometry" />
        </mxCell>
        <mxCell id="8VuM0Zkv0vW3da3uU9NV-81" value="ACP &lt;br&gt;RelatedPerson" style="text;align=center;verticalAlign=middle;spacingLeft=4;spacingRight=4;overflow=hidden;points=[[0,0.5],[1,0.5]];portConstraint=eastwest;rotatable=0;whiteSpace=wrap;html=1;fontSize=13;" parent="8VuM0Zkv0vW3da3uU9NV-80" vertex="1">
          <mxGeometry y="30" width="187.5" height="80" as="geometry" />
        </mxCell>
        <mxCell id="8VuM0Zkv0vW3da3uU9NV-36" value="PractitionerRole" style="swimlane;fontStyle=0;childLayout=stackLayout;horizontal=1;startSize=30;horizontalStack=0;resizeParent=1;resizeParentMax=0;resizeLast=0;collapsible=1;marginBottom=0;whiteSpace=wrap;html=1;fontSize=13;rounded=1;swimlaneLine=1;glass=0;shadow=1;arcSize=15;fillColor=#d5e8d4;strokeColor=#82b366;" parent="1" vertex="1">
          <mxGeometry x="1050" y="130" width="182.5" height="110" as="geometry" />
        </mxCell>
        <mxCell id="8VuM0Zkv0vW3da3uU9NV-37" value="ACP PractitionerRole" style="text;align=center;verticalAlign=middle;spacingLeft=4;spacingRight=4;overflow=hidden;points=[[0,0.5],[1,0.5]];portConstraint=eastwest;rotatable=0;whiteSpace=wrap;html=1;fontSize=13;" parent="8VuM0Zkv0vW3da3uU9NV-36" vertex="1">
          <mxGeometry y="30" width="182.5" height="80" as="geometry" />
        </mxCell>
        <mxCell id="8VuM0Zkv0vW3da3uU9NV-16" value="Observation" style="swimlane;fontStyle=0;childLayout=stackLayout;horizontal=1;startSize=30;horizontalStack=0;resizeParent=1;resizeParentMax=0;resizeLast=0;collapsible=1;marginBottom=0;whiteSpace=wrap;html=1;fontSize=13;rounded=1;swimlaneLine=1;glass=0;shadow=1;fillColor=#ffe6cc;strokeColor=#d79b00;" parent="1" vertex="1">
          <mxGeometry x="487.1099999999993" y="850" width="181.87" height="110" as="geometry" />
        </mxCell>
        <mxCell id="8VuM0Zkv0vW3da3uU9NV-17" value="ACP OtherImportantInformation" style="text;align=center;verticalAlign=middle;spacingLeft=4;spacingRight=4;overflow=hidden;points=[[0,0.5],[1,0.5]];portConstraint=eastwest;rotatable=0;whiteSpace=wrap;html=1;fontSize=13;" parent="8VuM0Zkv0vW3da3uU9NV-16" vertex="1">
          <mxGeometry y="30" width="181.87" height="80" as="geometry" />
        </mxCell>
        <mxCell id="8VuM0Zkv0vW3da3uU9NV-30" value="Observation" style="swimlane;fontStyle=0;childLayout=stackLayout;horizontal=1;startSize=30;horizontalStack=0;resizeParent=1;resizeParentMax=0;resizeLast=0;collapsible=1;marginBottom=0;whiteSpace=wrap;html=1;fontSize=13;rounded=1;swimlaneLine=1;glass=0;shadow=1;fillColor=#ffe6cc;strokeColor=#d79b00;" parent="1" vertex="1">
          <mxGeometry x="211.02" y="850" width="188.98" height="110" as="geometry" />
        </mxCell>
        <mxCell id="8VuM0Zkv0vW3da3uU9NV-31" value="ACP PositionRegardingEuthanasia" style="text;align=center;verticalAlign=middle;spacingLeft=4;spacingRight=4;overflow=hidden;points=[[0,0.5],[1,0.5]];portConstraint=eastwest;rotatable=0;whiteSpace=wrap;html=1;fontSize=13;" parent="8VuM0Zkv0vW3da3uU9NV-30" vertex="1">
          <mxGeometry y="30" width="188.98" height="80" as="geometry" />
        </mxCell>
        <mxCell id="8VuM0Zkv0vW3da3uU9NV-34" value="Observation" style="swimlane;fontStyle=0;childLayout=stackLayout;horizontal=1;startSize=30;horizontalStack=0;resizeParent=1;resizeParentMax=0;resizeLast=0;collapsible=1;marginBottom=0;whiteSpace=wrap;html=1;fontSize=13;rounded=1;swimlaneLine=1;glass=0;shadow=1;fillColor=#ffe6cc;strokeColor=#d79b00;" parent="1" vertex="1">
          <mxGeometry x="486.80000000000007" y="530" width="185" height="110" as="geometry" />
        </mxCell>
        <mxCell id="8VuM0Zkv0vW3da3uU9NV-35" value="ACP DesiredPlaceOfDeath" style="text;align=center;verticalAlign=middle;spacingLeft=4;spacingRight=4;overflow=hidden;points=[[0,0.5],[1,0.5]];portConstraint=eastwest;rotatable=0;whiteSpace=wrap;html=1;fontSize=13;" parent="8VuM0Zkv0vW3da3uU9NV-34" vertex="1">
          <mxGeometry y="30" width="185" height="80" as="geometry" />
        </mxCell>
        <mxCell id="8VuM0Zkv0vW3da3uU9NV-52" value="Observation" style="swimlane;fontStyle=0;childLayout=stackLayout;horizontal=1;startSize=30;horizontalStack=0;resizeParent=1;resizeParentMax=0;resizeLast=0;collapsible=1;marginBottom=0;whiteSpace=wrap;html=1;fontSize=13;rounded=1;swimlaneLine=1;glass=0;shadow=1;fillColor=#ffe6cc;strokeColor=#d79b00;" parent="1" vertex="1">
          <mxGeometry x="212.43" y="690" width="187.57" height="110" as="geometry" />
        </mxCell>
        <mxCell id="8VuM0Zkv0vW3da3uU9NV-53" value="ACP&amp;nbsp;SpecificCareWishes" style="text;align=center;verticalAlign=middle;spacingLeft=4;spacingRight=4;overflow=hidden;points=[[0,0.5],[1,0.5]];portConstraint=eastwest;rotatable=0;whiteSpace=wrap;html=1;fontSize=13;" parent="8VuM0Zkv0vW3da3uU9NV-52" vertex="1">
          <mxGeometry y="30" width="187.57" height="80" as="geometry" />
        </mxCell>
        <mxCell id="8VuM0Zkv0vW3da3uU9NV-57" value="Observation" style="swimlane;fontStyle=0;childLayout=stackLayout;horizontal=1;startSize=30;horizontalStack=0;resizeParent=1;resizeParentMax=0;resizeLast=0;collapsible=1;marginBottom=0;whiteSpace=wrap;html=1;fontSize=13;rounded=1;swimlaneLine=1;glass=0;shadow=1;fillColor=#ffe6cc;strokeColor=#d79b00;" parent="1" vertex="1">
          <mxGeometry x="488.0500000000005" y="690" width="185.62" height="110" as="geometry" />
        </mxCell>
        <mxCell id="8VuM0Zkv0vW3da3uU9NV-58" value="ACP DonorRegistration" style="text;align=center;verticalAlign=middle;spacingLeft=4;spacingRight=4;overflow=hidden;points=[[0,0.5],[1,0.5]];portConstraint=eastwest;rotatable=0;whiteSpace=wrap;html=1;fontSize=13;" parent="8VuM0Zkv0vW3da3uU9NV-57" vertex="1">
          <mxGeometry y="30" width="185.62" height="80" as="geometry" />
        </mxCell>
        <mxCell id="FuLyr285XApAAdLGLGYC-5" value="Observation" style="swimlane;fontStyle=0;childLayout=stackLayout;horizontal=1;startSize=30;horizontalStack=0;resizeParent=1;resizeParentMax=0;resizeLast=0;collapsible=1;marginBottom=0;whiteSpace=wrap;html=1;fontSize=13;rounded=1;swimlaneLine=1;glass=0;shadow=1;fillColor=#ffe6cc;strokeColor=#d79b00;" parent="1" vertex="1">
          <mxGeometry x="212.12000000000003" y="530" width="183.75" height="110" as="geometry" />
        </mxCell>
        <mxCell id="FuLyr285XApAAdLGLGYC-6" value="ACP AgreedMedicalPolicy" style="text;align=center;verticalAlign=middle;spacingLeft=4;spacingRight=4;overflow=hidden;points=[[0,0.5],[1,0.5]];portConstraint=eastwest;rotatable=0;whiteSpace=wrap;html=1;fontSize=13;" parent="FuLyr285XApAAdLGLGYC-5" vertex="1">
          <mxGeometry y="30" width="183.75" height="80" as="geometry" />
        </mxCell>
        <mxCell id="YoGBEqpOtSjLqOvvBxQy-59" value=".subject" style="rounded=0;orthogonalLoop=1;jettySize=auto;html=1;jumpStyle=arc;entryX=0.432;entryY=1.012;entryDx=0;entryDy=0;entryPerimeter=0;" edge="1" parent="1" source="YoGBEqpOtSjLqOvvBxQy-1" target="8VuM0Zkv0vW3da3uU9NV-39">
          <mxGeometry x="-0.5961" relative="1" as="geometry">
            <mxPoint x="565.8799999999999" y="577.81" as="sourcePoint" />
            <mxPoint x="569.0768499999999" y="430.00000000000006" as="targetPoint" />
            <mxPoint as="offset" />
          </mxGeometry>
        </mxCell>
        <mxCell id="YoGBEqpOtSjLqOvvBxQy-1" value="" style="rounded=0;whiteSpace=wrap;html=1;fillColor=none;shadow=0;glass=0;strokeWidth=2;strokeColor=#333333;" vertex="1" parent="1">
          <mxGeometry x="160" y="510" width="810" height="470" as="geometry" />
        </mxCell>
        <mxCell id="YoGBEqpOtSjLqOvvBxQy-60" value=".context" style="rounded=0;orthogonalLoop=1;jettySize=auto;html=1;entryX=0.007;entryY=0.639;entryDx=0;entryDy=0;jumpStyle=arc;exitX=0.36;exitY=0.003;exitDx=0;exitDy=0;exitPerimeter=0;edgeStyle=orthogonalEdgeStyle;entryPerimeter=0;" edge="1" parent="1" source="YoGBEqpOtSjLqOvvBxQy-1" target="8VuM0Zkv0vW3da3uU9NV-67">
          <mxGeometry x="-0.9041" y="2" relative="1" as="geometry">
            <mxPoint x="439.8300000000002" y="491.40999999999985" as="sourcePoint" />
            <mxPoint x="486.8" y="100" as="targetPoint" />
            <Array as="points">
              <mxPoint x="452" y="180" />
              <mxPoint x="452" y="131" />
            </Array>
            <mxPoint as="offset" />
          </mxGeometry>
        </mxCell>
        <mxCell id="YoGBEqpOtSjLqOvvBxQy-36" value=".practitioner" style="edgeStyle=orthogonalEdgeStyle;rounded=0;orthogonalLoop=1;jettySize=auto;html=1;entryX=0.5;entryY=0;entryDx=0;entryDy=0;exitX=0.531;exitY=0.986;exitDx=0;exitDy=0;exitPerimeter=0;" edge="1" parent="1" source="8VuM0Zkv0vW3da3uU9NV-37" target="8VuM0Zkv0vW3da3uU9NV-20">
          <mxGeometry relative="1" as="geometry">
            <Array as="points">
              <mxPoint x="1141" y="239" />
            </Array>
          </mxGeometry>
        </mxCell>
        <mxCell id="YoGBEqpOtSjLqOvvBxQy-46" value=".author" style="edgeStyle=orthogonalEdgeStyle;rounded=0;orthogonalLoop=1;jettySize=auto;html=1;entryX=0.994;entryY=0.369;entryDx=0;entryDy=0;exitX=0.004;exitY=0.375;exitDx=0;exitDy=0;jumpStyle=arc;exitPerimeter=0;entryPerimeter=0;" edge="1" parent="1" source="eSKdFPgsKXlqKzemyrp5-2" target="8VuM0Zkv0vW3da3uU9NV-21">
          <mxGeometry relative="1" as="geometry">
            <mxPoint x="1610.65" y="-160" as="sourcePoint" />
            <mxPoint x="1243.15" y="130" as="targetPoint" />
            <Array as="points">
              <mxPoint x="1231" y="360" />
            </Array>
          </mxGeometry>
        </mxCell>
        <mxCell id="YoGBEqpOtSjLqOvvBxQy-47" style="edgeStyle=orthogonalEdgeStyle;rounded=0;orthogonalLoop=1;jettySize=auto;html=1;entryX=0.907;entryY=0.024;entryDx=0;entryDy=0;jumpStyle=arc;exitX=0.383;exitY=-0.006;exitDx=0;exitDy=0;exitPerimeter=0;entryPerimeter=0;" edge="1" parent="1" source="eSKdFPgsKXlqKzemyrp5-1" target="8VuM0Zkv0vW3da3uU9NV-38">
          <mxGeometry relative="1" as="geometry">
            <mxPoint x="1309.2452173913045" y="270" as="sourcePoint" />
            <mxPoint x="587.98157" y="170.96000000000004" as="targetPoint" />
            <Array as="points">
              <mxPoint x="1378" y="280" />
              <mxPoint x="654" y="280" />
            </Array>
          </mxGeometry>
        </mxCell>
        <mxCell id="YoGBEqpOtSjLqOvvBxQy-48" value=".source / .subject" style="edgeLabel;html=1;align=center;verticalAlign=middle;resizable=0;points=[];" vertex="1" connectable="0" parent="YoGBEqpOtSjLqOvvBxQy-47">
          <mxGeometry x="-0.5598" y="1" relative="1" as="geometry">
            <mxPoint x="133" y="1" as="offset" />
          </mxGeometry>
        </mxCell>
        <mxCell id="YoGBEqpOtSjLqOvvBxQy-49" value=".context" style="edgeStyle=orthogonalEdgeStyle;rounded=0;orthogonalLoop=1;jettySize=auto;html=1;entryX=0.997;entryY=0.181;entryDx=0;entryDy=0;entryPerimeter=0;exitX=0.617;exitY=-0.05;exitDx=0;exitDy=0;exitPerimeter=0;" edge="1" parent="1" source="eSKdFPgsKXlqKzemyrp5-1" target="8VuM0Zkv0vW3da3uU9NV-67">
          <mxGeometry relative="1" as="geometry">
            <mxPoint x="1450" y="280" as="sourcePoint" />
            <mxPoint x="682.9974" y="99.03999999999996" as="targetPoint" />
          </mxGeometry>
        </mxCell>
        <mxCell id="YoGBEqpOtSjLqOvvBxQy-54" style="edgeStyle=orthogonalEdgeStyle;rounded=0;orthogonalLoop=1;jettySize=auto;html=1;entryX=0.229;entryY=1.018;entryDx=0;entryDy=0;entryPerimeter=0;exitX=0.504;exitY=0.988;exitDx=0;exitDy=0;exitPerimeter=0;" edge="1" parent="1" source="8VuM0Zkv0vW3da3uU9NV-13" target="8VuM0Zkv0vW3da3uU9NV-39">
          <mxGeometry relative="1" as="geometry">
            <Array as="points">
              <mxPoint x="307" y="440" />
              <mxPoint x="527" y="440" />
            </Array>
          </mxGeometry>
        </mxCell>
        <mxCell id="YoGBEqpOtSjLqOvvBxQy-55" value=".consentingParty" style="edgeStyle=orthogonalEdgeStyle;rounded=0;orthogonalLoop=1;jettySize=auto;html=1;entryX=0.543;entryY=1.003;entryDx=0;entryDy=0;entryPerimeter=0;" edge="1" parent="1" source="8VuM0Zkv0vW3da3uU9NV-13" target="8VuM0Zkv0vW3da3uU9NV-81">
          <mxGeometry x="-0.796" relative="1" as="geometry">
            <Array as="points">
              <mxPoint x="306" y="440" />
              <mxPoint x="872" y="440" />
            </Array>
            <mxPoint as="offset" />
          </mxGeometry>
        </mxCell>
        <mxCell id="YoGBEqpOtSjLqOvvBxQy-57" value="&lt;span style=&quot;color: rgb(0, 0, 0); font-family: Helvetica; font-size: 11px; font-style: normal; font-variant-ligatures: normal; font-variant-caps: normal; font-weight: 400; letter-spacing: normal; orphans: 2; text-align: center; text-indent: 0px; text-transform: none; widows: 2; word-spacing: 0px; -webkit-text-stroke-width: 0px; white-space: nowrap; background-color: rgb(255, 255, 255); text-decoration-thickness: initial; text-decoration-style: initial; text-decoration-color: initial; float: none; display: inline !important;&quot;&gt;.source.sourceReference&lt;/span&gt;" style="edgeStyle=orthogonalEdgeStyle;rounded=0;orthogonalLoop=1;jettySize=auto;html=1;entryX=0.509;entryY=1.007;entryDx=0;entryDy=0;entryPerimeter=0;" edge="1" parent="1" source="8VuM0Zkv0vW3da3uU9NV-12" target="8VuM0Zkv0vW3da3uU9NV-47">
          <mxGeometry x="-0.2877" y="1" relative="1" as="geometry">
            <mxPoint as="offset" />
          </mxGeometry>
        </mxCell>
        <mxCell id="YoGBEqpOtSjLqOvvBxQy-62" value=".sender" style="edgeStyle=orthogonalEdgeStyle;rounded=0;orthogonalLoop=1;jettySize=auto;html=1;entryX=0.305;entryY=1.003;entryDx=0;entryDy=0;entryPerimeter=0;exitX=0.322;exitY=0.006;exitDx=0;exitDy=0;exitPerimeter=0;jumpStyle=arc;" edge="1" parent="1" source="Ys8HYr0ielTZR72OGGFr-27" target="8VuM0Zkv0vW3da3uU9NV-21">
          <mxGeometry relative="1" as="geometry">
            <Array as="points">
              <mxPoint x="1107" y="490" />
              <mxPoint x="1106" y="490" />
            </Array>
          </mxGeometry>
        </mxCell>
        <mxCell id="YoGBEqpOtSjLqOvvBxQy-63" value=".subject / .recipient" style="edgeStyle=orthogonalEdgeStyle;rounded=0;orthogonalLoop=1;jettySize=auto;html=1;entryX=0.855;entryY=1.009;entryDx=0;entryDy=0;entryPerimeter=0;jumpStyle=arc;exitX=0;exitY=0.5;exitDx=0;exitDy=0;" edge="1" parent="1" source="Ys8HYr0ielTZR72OGGFr-27" target="8VuM0Zkv0vW3da3uU9NV-39">
          <mxGeometry x="-0.4732" relative="1" as="geometry">
            <Array as="points">
              <mxPoint x="990" y="585" />
              <mxPoint x="990" y="460" />
              <mxPoint x="645" y="460" />
            </Array>
            <mxPoint as="offset" />
          </mxGeometry>
        </mxCell>
        <mxCell id="YoGBEqpOtSjLqOvvBxQy-66" style="edgeStyle=orthogonalEdgeStyle;rounded=0;orthogonalLoop=1;jettySize=auto;html=1;entryX=0.167;entryY=-0.027;entryDx=0;entryDy=0;exitX=0.803;exitY=0.987;exitDx=0;exitDy=0;exitPerimeter=0;jumpStyle=arc;entryPerimeter=0;" edge="1" parent="1" source="8VuM0Zkv0vW3da3uU9NV-47" target="8VuM0Zkv0vW3da3uU9NV-38">
          <mxGeometry relative="1" as="geometry">
            <Array as="points">
              <mxPoint x="360" y="210" />
              <mxPoint x="515" y="210" />
            </Array>
          </mxGeometry>
        </mxCell>
        <mxCell id="YoGBEqpOtSjLqOvvBxQy-67" value=".patient" style="edgeLabel;html=1;align=center;verticalAlign=middle;resizable=0;points=[];" vertex="1" connectable="0" parent="YoGBEqpOtSjLqOvvBxQy-66">
          <mxGeometry x="-0.5132" relative="1" as="geometry">
            <mxPoint as="offset" />
          </mxGeometry>
        </mxCell>
        <mxCell id="YoGBEqpOtSjLqOvvBxQy-68" value=".source" style="edgeStyle=orthogonalEdgeStyle;rounded=0;orthogonalLoop=1;jettySize=auto;html=1;entryX=0.78;entryY=0.968;entryDx=0;entryDy=0;jumpStyle=arc;entryPerimeter=0;" edge="1" parent="1" target="8VuM0Zkv0vW3da3uU9NV-81">
          <mxGeometry x="-0.7689" relative="1" as="geometry">
            <mxPoint x="1367" y="410" as="sourcePoint" />
            <mxPoint x="940.005" y="430" as="targetPoint" />
            <Array as="points">
              <mxPoint x="1367" y="430" />
              <mxPoint x="916" y="430" />
            </Array>
            <mxPoint as="offset" />
          </mxGeometry>
        </mxCell>
      </root>
    </mxGraphModel>
  </diagram>
</mxfile>
